<svg xmlns="http://www.w3.org/2000/svg" xmlns:xlink="http://www.w3.org/1999/xlink" width="864" zoomAndPan="magnify" viewBox="0 0 648 242.999999" height="324" preserveAspectRatio="xMidYMid meet" version="1.0"><defs><g/></defs><g fill="#ff914d" fill-opacity="1"><g transform="translate(94.761723, 151.797616)"><g><path d="M 24.296875 20.671875 C 17.484375 20.671875 12.675781 18.34375 9.875 13.6875 C 7.082031 9.039062 5.6875 2.753906 5.6875 -5.171875 C 5.6875 -6.804688 5.75 -9.238281 5.875 -12.46875 C 6.007812 -15.695312 6.160156 -19.359375 6.328125 -23.453125 C 6.503906 -27.546875 6.71875 -31.875 6.96875 -36.4375 C 7.226562 -41 7.441406 -45.410156 7.609375 -49.671875 C 7.785156 -53.941406 7.9375 -57.882812 8.0625 -61.5 C 8.195312 -65.113281 8.265625 -68 8.265625 -70.15625 C 8.265625 -73.6875 7.507812 -76.441406 6 -78.421875 C 4.5 -80.398438 1.765625 -81.390625 -2.203125 -81.390625 C -3.148438 -82.691406 -3.796875 -83.960938 -4.140625 -85.203125 C -4.484375 -86.453125 -4.65625 -87.679688 -4.65625 -88.890625 C -4.65625 -91.210938 -3.75 -93.128906 -1.9375 -94.640625 C -0.125 -96.148438 2.585938 -96.90625 6.203125 -96.90625 C 12.578125 -96.90625 17.3125 -94.554688 20.40625 -89.859375 C 23.507812 -85.160156 25.0625 -78.894531 25.0625 -71.0625 C 25.0625 -68.820312 24.992188 -65.828125 24.859375 -62.078125 C 24.734375 -58.335938 24.582031 -54.289062 24.40625 -49.9375 C 24.238281 -45.582031 24.023438 -41.101562 23.765625 -36.5 C 23.515625 -31.894531 23.300781 -27.503906 23.125 -23.328125 C 22.957031 -19.148438 22.804688 -15.441406 22.671875 -12.203125 C 22.546875 -8.972656 22.484375 -6.539062 22.484375 -4.90625 C 22.484375 -1.632812 22.890625 0.859375 23.703125 2.578125 C 24.523438 4.304688 25.84375 5.171875 27.65625 5.171875 C 29.539062 5.171875 31.257812 4.179688 32.8125 2.203125 C 34.539062 2.628906 35.832031 3.507812 36.6875 4.84375 C 37.550781 6.175781 37.984375 7.707031 37.984375 9.4375 C 37.984375 12.875 36.671875 15.601562 34.046875 17.625 C 31.421875 19.65625 28.171875 20.671875 24.296875 20.671875 Z M 24.296875 20.671875 "/></g></g></g><g fill="#ff914d" fill-opacity="1"><g transform="translate(128.096397, 151.797616)"><g><path d="M 36.046875 -25.328125 C 33.203125 -25.328125 30.46875 -25.601562 27.84375 -26.15625 C 25.21875 -26.71875 22.785156 -27.472656 20.546875 -28.421875 C 21.398438 -25.066406 23.160156 -22.289062 25.828125 -20.09375 C 28.503906 -17.894531 32.296875 -16.796875 37.203125 -16.796875 C 41.253906 -16.796875 44.875 -17.59375 48.0625 -19.1875 C 51.25 -20.78125 53.875 -22.867188 55.9375 -25.453125 C 60.332031 -24.078125 62.53125 -21.101562 62.53125 -16.53125 C 62.53125 -13.695312 61.539062 -11.285156 59.5625 -9.296875 C 57.582031 -7.316406 55.210938 -5.742188 52.453125 -4.578125 C 49.703125 -3.421875 46.796875 -2.582031 43.734375 -2.0625 C 40.679688 -1.550781 38.078125 -1.296875 35.921875 -1.296875 C 25.671875 -1.296875 17.632812 -4.113281 11.8125 -9.75 C 6 -15.394531 3.09375 -23.34375 3.09375 -33.59375 C 3.09375 -39.019531 4 -43.734375 5.8125 -47.734375 C 7.625 -51.742188 10.015625 -55.101562 12.984375 -57.8125 C 15.953125 -60.53125 19.375 -62.554688 23.25 -63.890625 C 27.132812 -65.222656 31.140625 -65.890625 35.265625 -65.890625 C 39.921875 -65.890625 44.035156 -65.375 47.609375 -64.34375 C 51.179688 -63.3125 54.171875 -61.847656 56.578125 -59.953125 C 58.992188 -58.054688 60.804688 -55.835938 62.015625 -53.296875 C 63.222656 -50.753906 63.828125 -47.976562 63.828125 -44.96875 C 63.828125 -42.125 63.242188 -39.515625 62.078125 -37.140625 C 60.921875 -34.773438 59.195312 -32.707031 56.90625 -30.9375 C 54.625 -29.175781 51.738281 -27.800781 48.25 -26.8125 C 44.769531 -25.820312 40.703125 -25.328125 36.046875 -25.328125 Z M 36.6875 -50.390625 C 33.414062 -50.390625 30.488281 -49.695312 27.90625 -48.3125 C 25.320312 -46.9375 23.34375 -44.957031 21.96875 -42.375 C 26.445312 -40.476562 31.179688 -39.53125 36.171875 -39.53125 C 43.492188 -39.53125 47.15625 -41.34375 47.15625 -44.96875 C 47.15625 -46.769531 46.226562 -48.125 44.375 -49.03125 C 42.53125 -49.9375 39.96875 -50.390625 36.6875 -50.390625 Z M 36.6875 -50.390625 "/></g></g></g><g fill="#ff914d" fill-opacity="1"><g transform="translate(195.024173, 151.797616)"><g><path d="M 36.046875 -25.328125 C 33.203125 -25.328125 30.46875 -25.601562 27.84375 -26.15625 C 25.21875 -26.71875 22.785156 -27.472656 20.546875 -28.421875 C 21.398438 -25.066406 23.160156 -22.289062 25.828125 -20.09375 C 28.503906 -17.894531 32.296875 -16.796875 37.203125 -16.796875 C 41.253906 -16.796875 44.875 -17.59375 48.0625 -19.1875 C 51.25 -20.78125 53.875 -22.867188 55.9375 -25.453125 C 60.332031 -24.078125 62.53125 -21.101562 62.53125 -16.53125 C 62.53125 -13.695312 61.539062 -11.285156 59.5625 -9.296875 C 57.582031 -7.316406 55.210938 -5.742188 52.453125 -4.578125 C 49.703125 -3.421875 46.796875 -2.582031 43.734375 -2.0625 C 40.679688 -1.550781 38.078125 -1.296875 35.921875 -1.296875 C 25.671875 -1.296875 17.632812 -4.113281 11.8125 -9.75 C 6 -15.394531 3.09375 -23.34375 3.09375 -33.59375 C 3.09375 -39.019531 4 -43.734375 5.8125 -47.734375 C 7.625 -51.742188 10.015625 -55.101562 12.984375 -57.8125 C 15.953125 -60.53125 19.375 -62.554688 23.25 -63.890625 C 27.132812 -65.222656 31.140625 -65.890625 35.265625 -65.890625 C 39.921875 -65.890625 44.035156 -65.375 47.609375 -64.34375 C 51.179688 -63.3125 54.171875 -61.847656 56.578125 -59.953125 C 58.992188 -58.054688 60.804688 -55.835938 62.015625 -53.296875 C 63.222656 -50.753906 63.828125 -47.976562 63.828125 -44.96875 C 63.828125 -42.125 63.242188 -39.515625 62.078125 -37.140625 C 60.921875 -34.773438 59.195312 -32.707031 56.90625 -30.9375 C 54.625 -29.175781 51.738281 -27.800781 48.25 -26.8125 C 44.769531 -25.820312 40.703125 -25.328125 36.046875 -25.328125 Z M 36.6875 -50.390625 C 33.414062 -50.390625 30.488281 -49.695312 27.90625 -48.3125 C 25.320312 -46.9375 23.34375 -44.957031 21.96875 -42.375 C 26.445312 -40.476562 31.179688 -39.53125 36.171875 -39.53125 C 43.492188 -39.53125 47.15625 -41.34375 47.15625 -44.96875 C 47.15625 -46.769531 46.226562 -48.125 44.375 -49.03125 C 42.53125 -49.9375 39.96875 -50.390625 36.6875 -50.390625 Z M 36.6875 -50.390625 "/></g></g></g><g fill="#ff914d" fill-opacity="1"><g transform="translate(261.951948, 151.797616)"><g><path d="M 6.984375 -74.9375 C 6.984375 -77.945312 7.820312 -80.207031 9.5 -81.71875 C 11.175781 -83.226562 13.347656 -83.984375 16.015625 -83.984375 C 18.597656 -83.984375 21.179688 -83.207031 23.765625 -81.65625 L 23.765625 -63.1875 L 42.25 -63.1875 C 42.9375 -62.144531 43.472656 -60.957031 43.859375 -59.625 C 44.253906 -58.289062 44.453125 -56.976562 44.453125 -55.6875 C 44.453125 -53.53125 43.800781 -51.65625 42.5 -50.0625 C 41.207031 -48.46875 38.972656 -47.671875 35.796875 -47.671875 L 23.765625 -47.671875 L 23.765625 -14.078125 C 23.765625 -11.148438 24.410156 -8.929688 25.703125 -7.421875 C 27.003906 -5.921875 28.773438 -5.171875 31.015625 -5.171875 C 34.023438 -5.171875 36.738281 -6.804688 39.15625 -10.078125 C 41.300781 -9.210938 42.929688 -8.15625 44.046875 -6.90625 C 45.171875 -5.65625 45.734375 -3.957031 45.734375 -1.8125 C 45.734375 0.425781 45.128906 2.320312 43.921875 3.875 C 42.722656 5.425781 41.21875 6.675781 39.40625 7.625 C 37.59375 8.570312 35.609375 9.257812 33.453125 9.6875 C 31.304688 10.125 29.242188 10.34375 27.265625 10.34375 C 21.316406 10.34375 16.445312 8.445312 12.65625 4.65625 C 8.875 0.863281 6.984375 -5.125 6.984375 -13.3125 Z M 6.984375 -74.9375 "/></g></g></g><g fill="#ff914d" fill-opacity="1"><g transform="translate(314.496489, 151.797616)"><g><path d="M 67.3125 -5.171875 C 69.125 -5.171875 70.632812 -6.117188 71.84375 -8.015625 C 73.90625 -7.234375 75.453125 -6.128906 76.484375 -4.703125 C 77.515625 -3.285156 78.03125 -1.804688 78.03125 -0.265625 C 78.03125 3.179688 76.71875 5.8125 74.09375 7.625 C 71.46875 9.4375 68.21875 10.34375 64.34375 10.34375 C 61.675781 10.34375 59.222656 9.929688 56.984375 9.109375 C 54.742188 8.285156 52.78125 7.035156 51.09375 5.359375 C 49.414062 3.679688 48.101562 1.570312 47.15625 -0.96875 C 46.207031 -3.507812 45.734375 -6.457031 45.734375 -9.8125 C 45.734375 -11.800781 45.863281 -14.066406 46.125 -16.609375 C 46.382812 -19.148438 46.6875 -21.816406 47.03125 -24.609375 C 47.375 -27.410156 47.675781 -30.207031 47.9375 -33 C 48.195312 -35.800781 48.328125 -38.5 48.328125 -41.09375 C 48.328125 -44.363281 47.503906 -46.726562 45.859375 -48.1875 C 44.222656 -49.65625 42.285156 -50.390625 40.046875 -50.390625 C 36.859375 -50.390625 33.929688 -49.03125 31.265625 -46.3125 C 28.597656 -43.601562 26.53125 -40.179688 25.0625 -36.046875 L 25.0625 -11.625 C 25.0625 -8.613281 24.222656 -6.351562 22.546875 -4.84375 C 20.867188 -3.332031 18.691406 -2.578125 16.015625 -2.578125 C 13.429688 -2.578125 10.847656 -3.351562 8.265625 -4.90625 L 8.265625 -50.90625 C 8.265625 -53.664062 6.757812 -55.046875 3.75 -55.046875 L 2.453125 -55.046875 C 1.242188 -57.191406 0.640625 -59.382812 0.640625 -61.625 C 0.640625 -64.125 1.566406 -66.101562 3.421875 -67.5625 C 5.273438 -69.03125 7.753906 -69.765625 10.859375 -69.765625 C 15.503906 -69.765625 18.878906 -68.578125 20.984375 -66.203125 C 23.097656 -63.835938 24.375 -60.632812 24.8125 -56.59375 C 27.050781 -59.4375 29.65625 -61.695312 32.625 -63.375 C 35.59375 -65.050781 38.972656 -65.890625 42.765625 -65.890625 C 45.429688 -65.890625 48.097656 -65.457031 50.765625 -64.59375 C 53.441406 -63.738281 55.832031 -62.316406 57.9375 -60.328125 C 60.050781 -58.347656 61.773438 -55.785156 63.109375 -52.640625 C 64.453125 -49.503906 65.125 -45.609375 65.125 -40.953125 C 65.125 -38.285156 64.992188 -35.550781 64.734375 -32.75 C 64.472656 -29.945312 64.171875 -27.210938 63.828125 -24.546875 C 63.484375 -21.878906 63.179688 -19.40625 62.921875 -17.125 C 62.660156 -14.84375 62.53125 -12.878906 62.53125 -11.234375 C 62.53125 -9.335938 63.003906 -7.851562 63.953125 -6.78125 C 64.898438 -5.707031 66.019531 -5.171875 67.3125 -5.171875 Z M 67.3125 -5.171875 "/></g></g></g><g fill="#ff914d" fill-opacity="1"><g transform="translate(386.592424, 151.797616)"><g><path d="M 3.09375 -32.296875 C 3.09375 -34.796875 3.375 -37.226562 3.9375 -39.59375 C 4.5 -41.96875 5.515625 -44.40625 6.984375 -46.90625 C 7.234375 -50 8.175781 -52.726562 9.8125 -55.09375 C 11.457031 -57.46875 13.570312 -59.453125 16.15625 -61.046875 C 18.738281 -62.640625 21.6875 -63.84375 25 -64.65625 C 28.3125 -65.476562 31.78125 -65.890625 35.40625 -65.890625 C 39.882812 -65.890625 44.234375 -65.222656 48.453125 -63.890625 C 52.671875 -62.554688 56.394531 -60.507812 59.625 -57.75 C 62.851562 -55 65.4375 -51.507812 67.375 -47.28125 C 69.3125 -43.0625 70.28125 -38.066406 70.28125 -32.296875 C 70.28125 -27.648438 69.503906 -23.28125 67.953125 -19.1875 C 66.410156 -15.09375 64.195312 -11.535156 61.3125 -8.515625 C 58.425781 -5.503906 54.894531 -3.113281 50.71875 -1.34375 C 46.539062 0.414062 41.78125 1.296875 36.4375 1.296875 C 31.09375 1.296875 26.351562 0.390625 22.21875 -1.421875 C 18.082031 -3.234375 14.59375 -5.6875 11.75 -8.78125 C 8.914062 -11.882812 6.765625 -15.457031 5.296875 -19.5 C 3.828125 -23.550781 3.09375 -27.816406 3.09375 -32.296875 Z M 38.5 -38.5 C 43.320312 -38.5 47.757812 -39.316406 51.8125 -40.953125 C 50.34375 -44.578125 48.015625 -47.269531 44.828125 -49.03125 C 41.640625 -50.800781 38.15625 -51.6875 34.375 -51.6875 C 31.007812 -51.6875 28.398438 -51.144531 26.546875 -50.0625 C 24.691406 -48.988281 23.765625 -47.546875 23.765625 -45.734375 C 23.765625 -43.753906 24.992188 -42.050781 27.453125 -40.625 C 29.910156 -39.207031 33.59375 -38.5 38.5 -38.5 Z M 35.65625 -14.21875 C 40.394531 -14.21875 44.207031 -15.398438 47.09375 -17.765625 C 49.976562 -20.128906 51.894531 -23.207031 52.84375 -27 C 48.28125 -25.101562 43.414062 -24.15625 38.25 -24.15625 C 34.457031 -24.15625 30.835938 -24.5 27.390625 -25.1875 C 23.941406 -25.882812 20.84375 -26.960938 18.09375 -28.421875 C 18.863281 -24.285156 20.820312 -20.882812 23.96875 -18.21875 C 27.113281 -15.550781 31.007812 -14.21875 35.65625 -14.21875 Z M 35.65625 -14.21875 "/></g></g></g><g fill="#ff914d" fill-opacity="1"><g transform="translate(459.980397, 151.797616)"><g><path d="M 6.984375 -74.9375 C 6.984375 -77.945312 7.820312 -80.207031 9.5 -81.71875 C 11.175781 -83.226562 13.347656 -83.984375 16.015625 -83.984375 C 18.597656 -83.984375 21.179688 -83.207031 23.765625 -81.65625 L 23.765625 -63.1875 L 42.25 -63.1875 C 42.9375 -62.144531 43.472656 -60.957031 43.859375 -59.625 C 44.253906 -58.289062 44.453125 -56.976562 44.453125 -55.6875 C 44.453125 -53.53125 43.800781 -51.65625 42.5 -50.0625 C 41.207031 -48.46875 38.972656 -47.671875 35.796875 -47.671875 L 23.765625 -47.671875 L 23.765625 -14.078125 C 23.765625 -11.148438 24.410156 -8.929688 25.703125 -7.421875 C 27.003906 -5.921875 28.773438 -5.171875 31.015625 -5.171875 C 34.023438 -5.171875 36.738281 -6.804688 39.15625 -10.078125 C 41.300781 -9.210938 42.929688 -8.15625 44.046875 -6.90625 C 45.171875 -5.65625 45.734375 -3.957031 45.734375 -1.8125 C 45.734375 0.425781 45.128906 2.320312 43.921875 3.875 C 42.722656 5.425781 41.21875 6.675781 39.40625 7.625 C 37.59375 8.570312 35.609375 9.257812 33.453125 9.6875 C 31.304688 10.125 29.242188 10.34375 27.265625 10.34375 C 21.316406 10.34375 16.445312 8.445312 12.65625 4.65625 C 8.875 0.863281 6.984375 -5.125 6.984375 -13.3125 Z M 6.984375 -74.9375 "/></g></g></g><g fill="#ff914d" fill-opacity="1"><g transform="translate(508.819571, 151.797616)"><g><path d="M 36.046875 -25.328125 C 33.203125 -25.328125 30.46875 -25.601562 27.84375 -26.15625 C 25.21875 -26.71875 22.785156 -27.472656 20.546875 -28.421875 C 21.398438 -25.066406 23.160156 -22.289062 25.828125 -20.09375 C 28.503906 -17.894531 32.296875 -16.796875 37.203125 -16.796875 C 41.253906 -16.796875 44.875 -17.59375 48.0625 -19.1875 C 51.25 -20.78125 53.875 -22.867188 55.9375 -25.453125 C 60.332031 -24.078125 62.53125 -21.101562 62.53125 -16.53125 C 62.53125 -13.695312 61.539062 -11.285156 59.5625 -9.296875 C 57.582031 -7.316406 55.210938 -5.742188 52.453125 -4.578125 C 49.703125 -3.421875 46.796875 -2.582031 43.734375 -2.0625 C 40.679688 -1.550781 38.078125 -1.296875 35.921875 -1.296875 C 25.671875 -1.296875 17.632812 -4.113281 11.8125 -9.75 C 6 -15.394531 3.09375 -23.34375 3.09375 -33.59375 C 3.09375 -39.019531 4 -43.734375 5.8125 -47.734375 C 7.625 -51.742188 10.015625 -55.101562 12.984375 -57.8125 C 15.953125 -60.53125 19.375 -62.554688 23.25 -63.890625 C 27.132812 -65.222656 31.140625 -65.890625 35.265625 -65.890625 C 39.921875 -65.890625 44.035156 -65.375 47.609375 -64.34375 C 51.179688 -63.3125 54.171875 -61.847656 56.578125 -59.953125 C 58.992188 -58.054688 60.804688 -55.835938 62.015625 -53.296875 C 63.222656 -50.753906 63.828125 -47.976562 63.828125 -44.96875 C 63.828125 -42.125 63.242188 -39.515625 62.078125 -37.140625 C 60.921875 -34.773438 59.195312 -32.707031 56.90625 -30.9375 C 54.625 -29.175781 51.738281 -27.800781 48.25 -26.8125 C 44.769531 -25.820312 40.703125 -25.328125 36.046875 -25.328125 Z M 36.6875 -50.390625 C 33.414062 -50.390625 30.488281 -49.695312 27.90625 -48.3125 C 25.320312 -46.9375 23.34375 -44.957031 21.96875 -42.375 C 26.445312 -40.476562 31.179688 -39.53125 36.171875 -39.53125 C 43.492188 -39.53125 47.15625 -41.34375 47.15625 -44.96875 C 47.15625 -46.769531 46.226562 -48.125 44.375 -49.03125 C 42.53125 -49.9375 39.96875 -50.390625 36.6875 -50.390625 Z M 36.6875 -50.390625 "/></g></g></g></svg>